<svg xmlns="http://www.w3.org/2000/svg" width="512" height="512" viewBox="0 0 512 512">
  <defs>
    <linearGradient id="bg2" x1="0" y1="0" x2="1" y2="1">
      <stop offset="0" stop-color="#22c55e"/>
      <stop offset="1" stop-color="#06b6d4"/>
    </linearGradient>
    <linearGradient id="card2" x1="0" y1="0" x2="1" y2="1">
      <stop offset="0" stop-color="#0b1220" stop-opacity="0.95"/>
      <stop offset="1" stop-color="#111c33" stop-opacity="0.95"/>
    </linearGradient>
    <filter id="soft2" x="-20%" y="-20%" width="140%" height="140%">
      <feGaussianBlur stdDeviation="18"/>
    </filter>
  </defs>

  <rect width="512" height="512" rx="96" fill="url(#bg2)"/>

  <circle cx="410" cy="120" r="95" fill="#06b6d4" opacity="0.22" filter="url(#soft2)"/>
  <circle cx="120" cy="420" r="120" fill="#22c55e" opacity="0.20" filter="url(#soft2)"/>

  <rect x="72" y="86" width="368" height="340" rx="48" fill="url(#card2)" stroke="#2b3a5a" stroke-width="2"/>

  <g fill="none" stroke="#34d399" stroke-width="6" opacity="0.9" stroke-linecap="round" stroke-linejoin="round">
    <path d="M168 200c24-20 56-20 80 0"/>
    <path d="M264 200c24-20 56-20 80 0"/>
    <path d="M176 252h160"/>
    <path d="M196 296h120"/>
  </g>

  <g>
    <path d="M256 148l98 38-98 38-98-38 98-38z" fill="#06b6d4" opacity="0.18" stroke="#67e8f9" stroke-opacity="0.45"/>
    <path d="M182 210v60c0 20 32 38 74 38s74-18 74-38v-60" fill="none" stroke="#a5f3fc" stroke-width="6" stroke-linecap="round"/>
  </g>

  <text x="256" y="406" font-family="ui-sans-serif,system-ui,-apple-system,Segoe UI,Roboto,Arial" font-size="28" text-anchor="middle" fill="#e2e8f0" opacity="0.95">
    Supervisor
  </text>
</svg>

